<svg id="Layer_1" data-name="Layer 1" xmlns="http://www.w3.org/2000/svg" viewBox="0 0 43.75 411.79"><defs><style>.cls-1{fill:#cf3a3c;}.cls-2{fill:#b4e2ea;}.cls-3{fill:#010101;}</style></defs><path class="cls-1" d="M412.65,100.3h-33.1a2.17,2.17,0,0,0-2.17,2.17v28.71a2.17,2.17,0,0,0,2.17,2.17h33.1a2.17,2.17,0,0,0,2.17-2.17V102.47A2.17,2.17,0,0,0,412.65,100.3Zm-1.08,27.61a2.23,2.23,0,0,1-2.22,2.22h-26.5a2.22,2.22,0,0,1-2.21-2.22V105.74a2.21,2.21,0,0,1,2.21-2.22h26.5a2.22,2.22,0,0,1,2.22,2.22Z" transform="translate(-374.23 -99.93)"/><path class="cls-1" d="M412.65,133.71h-33.1a2.53,2.53,0,0,1-2.53-2.53V102.47a2.54,2.54,0,0,1,2.53-2.54h33.1a2.54,2.54,0,0,1,2.54,2.54v28.71A2.54,2.54,0,0,1,412.65,133.71Zm-33.1-33.05a1.81,1.81,0,0,0-1.8,1.81v28.71a1.81,1.81,0,0,0,1.8,1.81h33.1a1.81,1.81,0,0,0,1.81-1.81V102.47a1.81,1.81,0,0,0-1.81-1.81Zm29.8,29.83h-26.5a2.59,2.59,0,0,1-2.58-2.58V105.74a2.58,2.58,0,0,1,2.58-2.58h26.5a2.58,2.58,0,0,1,2.58,2.58v22.17A2.59,2.59,0,0,1,409.35,130.49Zm-26.5-26.61a1.86,1.86,0,0,0-1.85,1.86v22.17a1.85,1.85,0,0,0,1.85,1.85h26.5a1.85,1.85,0,0,0,1.85-1.85V105.74a1.86,1.86,0,0,0-1.85-1.86Z" transform="translate(-374.23 -99.93)"/><path class="cls-1" d="M394.87,130.13h2.47V103a1.24,1.24,0,0,0-1.24-1.23h0a1.23,1.23,0,0,0-1.23,1.23Z" transform="translate(-374.23 -99.93)"/><path class="cls-1" d="M397.7,130.49h-3.2V103a1.6,1.6,0,1,1,3.2,0Zm-2.47-.73H397V103a.87.87,0,0,0-1.74,0Z" transform="translate(-374.23 -99.93)"/><rect class="cls-2" x="0.36" y="138.79" width="43.02" height="109.87" rx="17.3"/><path class="cls-2" d="M400.31,349h-8.42a17.68,17.68,0,0,1-17.66-17.66V256a17.68,17.68,0,0,1,17.66-17.66h8.42A17.69,17.69,0,0,1,418,256V331.3A17.69,17.69,0,0,1,400.31,349Zm-8.42-109.87A17,17,0,0,0,375,256V331.3a17,17,0,0,0,16.93,16.93h8.42a17,17,0,0,0,16.94-16.93V256a17,17,0,0,0-16.94-16.93Z" transform="translate(-374.23 -99.93)"/><path class="cls-2" d="M391.89,238.72h8.42a17.25,17.25,0,0,1,12.77,5.64,289.35,289.35,0,0,1-1.56-30V134.23H380.68v80.11a289.35,289.35,0,0,1-1.56,30A17.25,17.25,0,0,1,391.89,238.72Z" transform="translate(-374.23 -99.93)"/><path class="cls-2" d="M413.56,245.42l-.75-.82a17,17,0,0,0-12.5-5.51h-8.42a17,17,0,0,0-12.5,5.51l-.75.82.12-1.1a292.4,292.4,0,0,0,1.56-30V133.86h31.56v80.48a289.6,289.6,0,0,0,1.57,30ZM381.05,134.59v79.75c0,9.62-.49,19.37-1.46,29a17.72,17.72,0,0,1,12.3-5h8.42a17.72,17.72,0,0,1,12.3,5c-1-9.64-1.46-19.39-1.46-29V134.59Z" transform="translate(-374.23 -99.93)"/><rect class="cls-3" x="377.9" y="242.01" width="36.4" height="103.3" rx="15.57" transform="translate(417.97 487.39) rotate(180)"/><path class="cls-3" d="M398.73,345.67h-5.26a16,16,0,0,1-15.93-15.93V257.58a15.94,15.94,0,0,1,15.93-15.93h5.26a16,16,0,0,1,15.94,15.93v72.16A16,16,0,0,1,398.73,345.67Zm-5.26-103.29a15.23,15.23,0,0,0-15.21,15.2v72.16A15.24,15.24,0,0,0,393.47,345h5.26a15.23,15.23,0,0,0,15.21-15.21V257.58a15.22,15.22,0,0,0-15.21-15.2Z" transform="translate(-374.23 -99.93)"/><path class="cls-1" d="M411.47,156.64H380.73a2.23,2.23,0,0,0-2.23,2.23v15.39a2.23,2.23,0,0,0,2.23,2.23h30.74a2.23,2.23,0,0,0,2.24-2.23V158.87A2.23,2.23,0,0,0,411.47,156.64Zm-7,11.67H387.68a1.75,1.75,0,0,1,0-3.49h16.84a1.75,1.75,0,1,1,0,3.49Z" transform="translate(-374.23 -99.93)"/><path class="cls-1" d="M411.47,176.86H380.73a2.61,2.61,0,0,1-2.6-2.6V158.87a2.6,2.6,0,0,1,2.6-2.59h30.74a2.59,2.59,0,0,1,2.6,2.59v15.39A2.6,2.6,0,0,1,411.47,176.86ZM380.73,157a1.87,1.87,0,0,0-1.87,1.87v15.39a1.87,1.87,0,0,0,1.87,1.87h30.74a1.87,1.87,0,0,0,1.87-1.87V158.87a1.87,1.87,0,0,0-1.87-1.87Zm23.79,11.67H387.68a2.11,2.11,0,1,1,0-4.21h16.84a2.11,2.11,0,1,1,0,4.21Zm-16.84-3.48a1.38,1.38,0,1,0,0,2.75h16.84a1.38,1.38,0,1,0,0-2.75Z" transform="translate(-374.23 -99.93)"/><path class="cls-2" d="M400.31,348.6h-8.42a17.23,17.23,0,0,1-12.73-5.6,291.13,291.13,0,0,1,1.52,29.67V488.38a45,45,0,0,0,.71,7.94l1.61,9a7.29,7.29,0,0,0,7.18,6H402a7.29,7.29,0,0,0,7.18-6l1.61-9a45,45,0,0,0,.71-7.94V372.67A291.13,291.13,0,0,1,413,343,17.23,17.23,0,0,1,400.31,348.6ZM396.1,484.94a4.22,4.22,0,1,1,4.22-4.21A4.21,4.21,0,0,1,396.1,484.94Zm0-20.58a4.22,4.22,0,1,1,4.22-4.22A4.21,4.21,0,0,1,396.1,464.36Zm0-20.59a4.22,4.22,0,1,1,4.22-4.21A4.21,4.21,0,0,1,396.1,443.77Zm0-20.58a4.22,4.22,0,1,1,4.22-4.22A4.21,4.21,0,0,1,396.1,423.19Zm0-20.59a4.22,4.22,0,1,1,4.22-4.22A4.21,4.21,0,0,1,396.1,402.6Zm0-20.58a4.22,4.22,0,1,1,4.22-4.22A4.21,4.21,0,0,1,396.1,382Z" transform="translate(-374.23 -99.93)"/><path class="cls-2" d="M402,511.72H390.18a7.66,7.66,0,0,1-7.54-6.31l-1.61-9a45.78,45.78,0,0,1-.71-8V372.67A290.79,290.79,0,0,0,378.8,343l-.12-1.09.75.81a17,17,0,0,0,12.46,5.47h8.42a17,17,0,0,0,12.47-5.47l.74-.81-.11,1.09a290.8,290.8,0,0,0-1.53,29.63V488.38a45.78,45.78,0,0,1-.71,8l-1.61,9A7.65,7.65,0,0,1,402,511.72ZM379.63,344c.94,9.51,1.42,19.15,1.42,28.67V488.38a44.31,44.31,0,0,0,.7,7.88l1.61,9a6.92,6.92,0,0,0,6.82,5.7H402a6.92,6.92,0,0,0,6.82-5.7l1.62-9a45.34,45.34,0,0,0,.69-7.88V372.67c0-9.52.48-19.16,1.43-28.67a17.75,17.75,0,0,1-12.27,5h-8.42A17.72,17.72,0,0,1,379.63,344ZM396.1,485.31a4.58,4.58,0,1,1,4.58-4.58A4.59,4.59,0,0,1,396.1,485.31Zm0-8.44a3.86,3.86,0,1,0,3.85,3.86A3.86,3.86,0,0,0,396.1,476.87Zm0-12.15a4.58,4.58,0,1,1,4.58-4.58A4.59,4.59,0,0,1,396.1,464.72Zm0-8.43a3.85,3.85,0,1,0,3.85,3.85A3.86,3.86,0,0,0,396.1,456.29Zm0-12.15a4.59,4.59,0,1,1,4.58-4.58A4.59,4.59,0,0,1,396.1,444.14Zm0-8.44a3.86,3.86,0,1,0,3.85,3.86A3.86,3.86,0,0,0,396.1,435.7Zm0-12.15a4.58,4.58,0,1,1,4.58-4.58A4.59,4.59,0,0,1,396.1,423.55Zm0-8.43A3.85,3.85,0,1,0,400,419,3.86,3.86,0,0,0,396.1,415.12Zm0-12.15a4.59,4.59,0,1,1,4.58-4.59A4.59,4.59,0,0,1,396.1,403Zm0-8.44a3.86,3.86,0,1,0,3.85,3.85A3.86,3.86,0,0,0,396.1,394.53Zm0-12.15a4.58,4.58,0,1,1,4.58-4.58A4.59,4.59,0,0,1,396.1,382.38Zm0-8.43A3.85,3.85,0,1,0,400,377.8,3.86,3.86,0,0,0,396.1,374Z" transform="translate(-374.23 -99.93)"/><path class="cls-1" d="M409.3,307.36h0a13,13,0,0,1-3.87,9.29,13.25,13.25,0,0,1-18.66,0,13.1,13.1,0,0,1,0-18.59l9.33-9.27,9.33,9.27A13,13,0,0,1,409.3,307.36Zm-21.85,0a8.47,8.47,0,0,0,2.53,6.07h0a8.72,8.72,0,0,0,12.25,0,8.55,8.55,0,0,0,0-12.14l-6.13-6.09L390,301.29A8.47,8.47,0,0,0,387.45,307.36Z" transform="translate(-374.23 -99.93)"/><path class="cls-1" d="M409.3,276.63a13,13,0,0,1-3.87,9.29l-9.33,9.28-9.33-9.28a13.09,13.09,0,0,1,0-18.58,13.25,13.25,0,0,1,18.66,0A13,13,0,0,1,409.3,276.63Zm-13.2,12.16,6.13-6.09a8.55,8.55,0,0,0,0-12.14,8.7,8.7,0,0,0-12.25,0h0a8.55,8.55,0,0,0,0,12.14Z" transform="translate(-374.23 -99.93)"/></svg>