<svg id="Layer_1" data-name="Layer 1" xmlns="http://www.w3.org/2000/svg" xmlns:xlink="http://www.w3.org/1999/xlink" viewBox="0 0 396.19 302.92"><defs><style>.cls-1{fill:#fff;}.cls-2,.cls-7,.cls-8{fill:#d03a3d;}.cls-3{fill:#b9e3e8;}.cls-4{opacity:0.56;fill:url(#linear-gradient);}.cls-5,.cls-6{opacity:0.61;}.cls-5{fill:url(#linear-gradient-2);}.cls-6{fill:url(#linear-gradient-3);}.cls-7{font-size:268.45px;}.cls-7,.cls-8{font-family:Calibri;}.cls-8{font-size:254px;}.cls-9{fill:none;}</style><linearGradient id="linear-gradient" x1="275.15" y1="251.72" x2="275.15" y2="268.72" gradientTransform="translate(-180.35 160.11) rotate(-45)" gradientUnits="userSpaceOnUse"><stop offset="0" stop-color="#c95759" stop-opacity="0"/><stop offset="1"/></linearGradient><linearGradient id="linear-gradient-2" x1="593.14" y1="149.65" x2="593.14" y2="168.8" gradientTransform="translate(756.26 -131.13) rotate(135)" gradientUnits="userSpaceOnUse"><stop offset="0" stop-color="#c95759" stop-opacity="0"/><stop offset="0.2"/></linearGradient><linearGradient id="linear-gradient-3" x1="412.55" y1="376.59" x2="400.68" y2="376.48" gradientUnits="userSpaceOnUse"><stop offset="0" stop-color="#c95759" stop-opacity="0"/><stop offset="0.84" stop-opacity="0.9"/></linearGradient></defs><rect class="cls-1" y="36.33" width="396.19" height="226.1"/><path class="cls-2" d="M315.34,392.14h0a46.87,46.87,0,0,1-33.46-13.94,47.77,47.77,0,0,1,0-67.19,47.14,47.14,0,0,1,66.93,0l33.4,33.59-33.4,33.6A46.88,46.88,0,0,1,315.34,392.14Zm0-78.7a30.59,30.59,0,0,0-21.85,9.11h0a31.36,31.36,0,0,0,0,44.11,30.77,30.77,0,0,0,43.71,0l21.93-22.06L337.2,322.55A30.59,30.59,0,0,0,315.34,313.44Z" transform="translate(-159.78 -182.31)"/><path class="cls-2" d="M426,392.14a46.88,46.88,0,0,1-33.47-13.94l-33.39-33.6L392.52,311a47.14,47.14,0,0,1,66.93,0,47.76,47.76,0,0,1,0,67.19A46.86,46.86,0,0,1,426,392.14ZM382.21,344.6l21.92,22.06a30.77,30.77,0,0,0,43.71,0,31.36,31.36,0,0,0,0-44.11h0a30.77,30.77,0,0,0-43.71,0Z" transform="translate(-159.78 -182.31)"/><path class="cls-3" d="M385.86,340.36" transform="translate(-159.78 -182.31)"/><polygon class="cls-4" points="199.34 162.3 210.92 150.73 196.75 136.47 185.27 148.15 199.34 162.3"/><polygon class="cls-5" points="222.42 162.19 210.92 173.94 224.49 187.59 234.9 176.42 222.42 162.19"/><path class="cls-6" d="M400.81,363.32l5.86,5.7a25.6,25.6,0,0,0,5.92,3.69l-1.52,17s-7.84-3.13-10.39-5Z" transform="translate(-159.78 -182.31)"/><text class="cls-7" transform="translate(24.91 219.03)">t</text><text class="cls-8" transform="translate(307.02 223.11)">i</text><path class="cls-2" d="M400.67,423.23,401,344.5l-18.94.1.67,82.27h0a11.48,11.48,0,0,0,8.11,3.36h1.09a13.31,13.31,0,0,0,8.83-3.36h0Z" transform="translate(-159.78 -182.31)"/><path class="cls-2" d="M401.09,304.17,401,344.5l-18.94.1-.19-22.83S396.37,306.15,401.09,304.17Z" transform="translate(-159.78 -182.31)"/><line class="cls-9" x1="0.19" y1="138.06" x2="19.14" y2="137.95"/></svg>