<svg id="Layer_1" data-name="Layer 1" xmlns="http://www.w3.org/2000/svg" viewBox="0 0 205.19 95.07"><defs><style>.cls-1{fill:#d03a3d;}</style></defs><path class="cls-1" d="M357.13,346.84h0a46.86,46.86,0,0,1-33.46-13.94,47.76,47.76,0,0,1,0-67.19,47.14,47.14,0,0,1,66.93,0L424,299.3,390.6,332.9A46.88,46.88,0,0,1,357.13,346.84Zm0-78.7a30.59,30.59,0,0,0-21.85,9.11h0a31.36,31.36,0,0,0,0,44.11,30.77,30.77,0,0,0,43.71,0l21.92-22.06L379,277.25A30.59,30.59,0,0,0,357.13,268.14Z" transform="translate(-309.86 -251.77)"/><path class="cls-1" d="M467.77,346.84a46.87,46.87,0,0,1-33.46-13.94l-33.4-33.6,33.4-33.59a47.14,47.14,0,0,1,66.93,0,47.77,47.77,0,0,1,0,67.19A46.88,46.88,0,0,1,467.77,346.84ZM424,299.3l21.93,22.06a30.77,30.77,0,0,0,43.71,0,31.36,31.36,0,0,0,0-44.11h0a30.77,30.77,0,0,0-43.71,0Z" transform="translate(-309.86 -251.77)"/></svg>