<?xml version="1.0" encoding="utf-8"?>
<!-- Generator: Adobe Illustrator 24.1.0, SVG Export Plug-In . SVG Version: 6.00 Build 0)  -->
<svg version="1.1" id="Layer_1" xmlns="http://www.w3.org/2000/svg" xmlns:xlink="http://www.w3.org/1999/xlink" x="0px" y="0px"
	 viewBox="0 0 1296 1728" style="enable-background:new 0 0 1296 1728;" xml:space="preserve">
<style type="text/css">
	.st0{fill:#E1E1E1;}
	.st1{fill:#D0D0D0;}
	.st2{fill:#19191A;}
	.st3{fill:#5A6169;}
	.st4{fill:#010203;}
	.st5{fill:#55CCD9;}
</style>
<path class="st0" d="M897.71,835.96c-2.18-1-2.25-2.29-0.55-3.84C897.35,833.4,897.53,834.68,897.71,835.96z"/>
<path class="st1" d="M833.89,645.03c-0.97-0.98-0.98-1.96-0.01-2.95C834.35,643.06,834.33,644.04,833.89,645.03z"/>
<path class="st0" d="M401.66,827.73c1.37,1.26,1.81,2.41-0.39,3.23C401.4,829.89,401.53,828.81,401.66,827.73z"/>
<path class="st0" d="M898.6,844.95c-1.77-0.77-2.16-1.68-0.31-2.85C898.39,843.05,898.5,844,898.6,844.95z"/>
<path class="st0" d="M896.6,826.95c-1.52-0.51-1.46-1.26-0.33-2.16C896.38,825.51,896.49,826.23,896.6,826.95z"/>
<path class="st0" d="M895.62,819.96c-0.86-0.3-0.76-0.77-0.22-1.31C895.48,819.08,895.55,819.52,895.62,819.96z"/>
<path class="st1" d="M437.62,1097.33c-0.68-2.71-0.57-5.57-0.84-8.42C438.64,1091.5,437.73,1094.44,437.62,1097.33z"/>
<path class="st1" d="M432.01,940.08c-0.08,0.96,0,1.86-0.82,1.79c-1.02-0.08-1.06-1.09-1.02-1.89c0.04-0.62,0.16-1.51,1.06-1.17
	C431.67,938.97,431.85,939.8,432.01,940.08z"/>
<ellipse class="st1" cx="869.48" cy="964.48" rx="0.34" ry="8.5"/>
<path class="st1" d="M869.53,975.22c0.66,1.15,0.56,2.23-0.01,3.68C868.85,977.48,868.7,976.4,869.53,975.22z"/>
<path class="st1" d="M869.53,935.18c0.57,0.91,0.7,1.75-0.1,2.61C868.85,936.88,868.73,936.04,869.53,935.18z"/>
<path class="st1" d="M864.85,828.51c-0.19,0.14-0.38,0.28-0.56,0.41c-0.06-0.14-0.2-0.35-0.16-0.4c0.15-0.17,0.36-0.29,0.55-0.43
	C864.73,828.23,864.79,828.37,864.85,828.51z"/>
<path class="st1" d="M794.81,752.3c-3.47,8.53-10.03,14.19-17.66,18.77c-18.74,11.26-39.8,15.4-60.81,19.72
	c-1.2,0.25-3.42-0.25-2.61,2.37c-19.47,1.67-38.92,3.83-58.43,4.86c-21.03,1.11-42.13,1.64-63.16,0c-5.3-0.41-10.59-0.56-15.88-0.93
	c-16.03-1.1-31.8-4.61-47.91-4.98c-1.43-2.94-4.42-2.54-6.88-3.06c-14.6-3.08-28.98-6.86-42.7-12.83
	c-3.63-1.58-7.24-3.23-10.26-5.88c3.26-3.24,4.14-9.55,10.97-8.26c1.6,0.3,4.08,0.89,4.83-1.36c0.84-2.52-1.34-3.95-3.1-5.14
	c-5.78-3.91-11.62-7.69-18.34-9.89c-2.44-0.79-4.9-2.01-3.95-5.3c1.19-4.11,0.61-8.27,0.77-12.41c0.3-7.65,4.57-10.5,11.62-7.74
	c3.39,1.33,6.84,2.51,10.21,3.89c1.66,0.68,2.89,0.84,3.36-1.29c2.62,2.02,5.19,4.11,7.87,6.04c25.8,18.59,55.26,28.1,86,34.24
	c45.06,9,88.07-0.07,130.08-15.84c12.3-4.62,23.79-11.27,34.54-18.96c11.23-8.03,21.12-17.2,25.13-31.09
	c1.36,0.01,2.54-0.42,3.77-1.04c5.71-2.87,11.15-6.54,18.22-4.39c2.69,0.82,3.36-1.69,3.03-3.83c-1.86-11.94-3.87-23.94-8.22-35.2
	c-6.07-15.72-15.44-29.52-27.77-41.1c-6.65-6.25-14.28-11.24-22.71-14.82c-3.15-1.34-6.06-1.1-6.21,3.48
	c-0.95-0.66-1.99-1.21-2.82-1.98c-29.75-27.64-65.44-39.94-105.51-40.85c-17.61-0.4-34.74,2.82-51.63,7.53
	c-0.15-2.45,0.02-4.8,2.86-5.67c6.95-2.13,12.1-7.95,19.46-9.35c1.84-0.35,4.11-0.45,5.49-2.13c3.5-4.26,8.54-4.66,13.42-5.69
	c6.28-1.32,12.54-0.94,18.84-0.46c18.62,1.42,36.8,4.39,53.98,12.38c8.59,3.99,16.94,8.48,25.58,12.28
	c15.01,6.6,28.79,15.21,41.75,25c20.61,15.56,34.71,36.17,42.53,60.69c3.71,11.61,6.56,23.53,7.41,35.91
	c1.2,17.34,1.09,34.4-3.96,51.24C794.78,743.37,793.48,747.8,794.81,752.3z"/>
<path class="st0" d="M529.58,800.8c16.13,0.33,31.94,3.39,48,4.35c5.3,0.32,10.61,0.45,15.91,0.81c21.07,1.43,42.21,0.97,63.28,0
	c19.54-0.9,39.03-2.79,58.54-4.25c25.96-0.9,51.92-2.61,77.86,0.04c3.28,0.34,6.54,1.13,9.68,2.05c5.09,1.48,8.39,4.45,9.42,9.26
	c2.17,10.13,4.9,20.18,4.9,30.57c-1.91-0.2-1.31-2.22-2.66-2.83c-5.18,3.7-6.54,3.95-10.87-2.99c-4.54-7.29-10.9-7.84-18.47-6.08
	c-14.32,3.33-28.59,6.85-42.76,10.62c-3.98,1.06-7.48-1.41-11.47-0.84c4.93-1.28,9.83-2.68,14.81-3.82
	c11.6-2.67,22.31-7.57,33.99-10.05c1.53-0.32,3.84-1.05,3.18-2.74c-0.83-2.14-2.91-0.43-4.19-0.06c-4.89,1.44-9.66,3.2-14.53,4.69
	c-1.45,0.44-2.93,1.48-4.74,0.59c1.53-2,5.04-1.62,6.34-4.29c-2.58-0.96-4.92-0.43-7.3,0.12c-23.5,5.46-46.99,11.05-70.95,14.73
	c-16.85,2.59-33.87,4.36-50.81,6.47c-18.55,2.31-36.79-0.65-55.13-2.41c-29.1-2.78-57.33-8.9-85.28-16.19
	c-1.75-0.46-3.58-0.67-5.36-1.02c-1.77-0.35-4.09-1.23-5.16,0.14c-1.41,1.79,2.49,1.91,2.42,4.24c-7.84-1.22-14.65-4.97-22.4-5.94
	c14.68,7.59,30.96,11.57,47.43,15.65c-5.64,2.38-10.16,1.8-19.11-0.98c-10.77-3.35-21.77-6.17-32.98-8.18
	c-6.68-1.2-9.44,0.55-13.4,8.97c-1.61,3.41-3.95,6.75-4.06,10.67c-0.03,1.04-0.27,2.2-1.67,2.38c-1.8,0.23-2.21-1.17-2.43-2.26
	c-0.88-4.46-2.35-8.7-4.49-12.85c-1.2-2.33-2.27-1.9-4-0.97c1.04-8.8,4.13-17.25,5.96-25.92c1.13-5.33,5.95-8.18,11.63-9.83
	c8.64-2.51,17.59-3.19,26.61-3.41c16.84-0.42,33.67-0.02,50.49,0.71C527.13,800.01,528.5,799.93,529.58,800.8z"/>
<path class="st0" d="M794.81,752.3c-1.33-4.51-0.02-8.93,1.21-13.05c5.06-16.84,5.16-33.9,3.96-51.24
	c-0.86-12.38-3.71-24.3-7.41-35.91c-7.82-24.52-21.92-45.13-42.53-60.69c-12.96-9.78-26.74-18.4-41.75-25
	c-8.64-3.8-16.99-8.28-25.58-12.28c-17.18-7.99-35.36-10.97-53.98-12.38c-6.3-0.48-12.56-0.86-18.84,0.46
	c-4.88,1.03-9.92,1.43-13.42,5.69c-1.38,1.68-3.64,1.78-5.49,2.13c-7.36,1.4-12.51,7.22-19.46,9.35c-2.84,0.87-3.01,3.22-2.86,5.67
	c-6.73,2.76-13.6,5.23-20.17,8.33c-12.66,5.97-24.32,13.57-34.81,22.89c-3.09,2.71-6.54,5.1-9.2,8.18
	c-14.04,16.28-25.68,34.08-31.14,55.11c-2.03,7.84-6,15.52-4.25,24.09c-1.03,10.1-0.22,19.51,6.06,28.39
	c2.91,4.11,7.04,6.75,9.71,10.84c-0.48,2.13-1.7,1.97-3.36,1.29c-3.37-1.38-6.82-2.57-10.21-3.89c-7.05-2.75-11.32,0.09-11.62,7.74
	c-0.16,4.14,0.43,8.3-0.77,12.41c-0.96,3.29,1.51,4.51,3.95,5.3c6.72,2.19,12.57,5.98,18.34,9.89c1.77,1.19,3.94,2.62,3.1,5.14
	c-0.75,2.25-3.23,1.67-4.83,1.36c-6.83-1.29-7.7,5.01-10.97,8.26c-12.25-7.28-19.25-18.59-23.91-31.56
	c-6.83-18.98-6.8-38.57-4.49-58.26c3.32-28.19,12.7-54.13,29.74-77.02c10.34-13.88,23.1-25.35,37.17-35.3
	c22.45-15.88,46.07-29.6,73.61-34.4c23.11-4.03,46.5-2.96,69.8-1.85c11.34,0.54,22.55,2.21,33.27,6.23
	c35.74,13.43,67.18,33.34,91.32,63.23c15.61,19.32,25.38,41.64,28.8,66.52c0.7,5.11,2.29,10.09,1.8,15.34
	c0.03,0.47,0.05,0.94,0.08,1.4c3.03,4.55,1.5,9.68,1.85,14.57c-0.97,0.99-0.96,1.97,0.01,2.95
	C807.63,720,804.08,736.88,794.81,752.3z"/>
<path class="st1" d="M805.7,684.69c-0.03-0.47-0.05-0.94-0.08-1.4C805.66,683.75,807.25,684.13,805.7,684.69z"/>
<path class="st2" d="M513.68,596.25c10.49-9.32,22.15-16.92,34.81-22.89c6.57-3.1,13.44-5.57,20.17-8.33
	c16.89-4.71,34.02-7.93,51.63-7.53c40.07,0.91,75.77,13.22,105.51,40.85c0.83,0.78,1.88,1.33,2.82,1.98
	c0.38,0.54,0.69,1.14,1.15,1.61c25.85,26.51,39.04,58.16,38.73,95.3c-4.01,13.89-13.9,23.07-25.13,31.09
	c-10.76,7.69-22.24,14.34-34.54,18.96c-42.01,15.77-85.02,24.84-130.08,15.84c-30.74-6.14-60.2-15.65-86-34.24
	c-2.68-1.93-5.25-4.02-7.87-6.04c-2.67-4.09-6.8-6.72-9.71-10.84c-6.28-8.88-7.09-18.28-6.06-28.39c1.64,0.47,3.28,0.56,4.88-0.12
	c6.47-2.74,13.41-3.65,20.22-4.86c4.12-0.73,5.98-2.81,7.26-6.32c1.12-3.06,1.75-6.49,5.02-8.27c2.82,11.7,10.99,18.71,20.9,24.43
	c6.69,3.86,14.06,5.53,21.27,7.78c0.01,2.66,0.03,5.32,0.01,7.99c-0.13,17.29,9.12,23.81,22.28,27.66
	c12.64,3.69,25.91,3.49,38.95,4.19c11.44,0.61,22.91,0.14,34.36-0.83c9.62-0.82,19.17-1.86,28.31-5.17
	c8.59-3.11,14.15-8.87,16.23-18.01c1.32-5.8,0.68-11.58,0.85-17.38c11.7-3.66,22.44-8.89,30.69-18.36
	c12.43-14.26,8.67-31.49-8.68-38.87c-6.12-2.6-12.55-3.88-19.28-4.13c-8.41-0.3-16.49,1.36-24.59,3.13
	c-3.17-1.37-6.24-3.12-9.53-4.06c-25.67-7.32-51.42-7.15-77.07,0.04c-3.95,1.11-8.44,2.2-10.55,6.62c-2.03-0.7-4.06-1.42-6.1-2.1
	c-13.95-4.64-27.91-5.8-41.9-0.15c-0.37-1.42-1.04-2.81,0.09-4.23c2.74-3.44,1.95-7.07,0.62-10.8c-2-5.59-4.03-11.19-5.71-16.88
	C516.7,601.8,516.15,598.62,513.68,596.25z"/>
<path class="st0" d="M768.5,697.25c0.31-37.14-12.89-68.79-38.73-95.3c-0.45-0.47-0.77-1.07-1.15-1.61
	c0.15-4.57,3.06-4.81,6.21-3.48c8.43,3.58,16.06,8.57,22.71,14.82c12.33,11.58,21.7,25.38,27.77,41.1
	c4.35,11.26,6.36,23.26,8.22,35.2c0.33,2.15-0.34,4.65-3.03,3.83c-7.07-2.15-12.52,1.51-18.22,4.39
	C771.04,696.83,769.86,697.26,768.5,697.25z"/>
<path class="st3" d="M506.48,664.06c-3.28,1.78-3.91,5.21-5.03,8.27c-1.28,3.51-3.14,5.59-7.26,6.32
	c-6.8,1.21-13.75,2.12-20.22,4.86c-1.6,0.68-3.24,0.59-4.88,0.12c-1.76-8.57,2.21-16.25,4.25-24.09
	c5.46-21.03,17.09-38.84,31.14-55.11c2.66-3.08,6.11-5.47,9.2-8.18c2.47,2.37,3.03,5.55,3.95,8.67c1.69,5.69,3.71,11.28,5.71,16.88
	c1.33,3.73,2.12,7.36-0.62,10.8c-1.13,1.42-0.46,2.81-0.09,4.23C511.47,642.48,505.15,651,506.48,664.06z"/>
<path class="st4" d="M570.63,639.07c2.12-4.42,6.6-5.51,10.55-6.62c25.65-7.19,51.39-7.35,77.07-0.04c3.3,0.94,6.36,2.69,9.53,4.06
	c-8.01,3.26-16.03,6.56-22.5,12.51c-7.59,6.97-13.78,14.88-11.65,26.01c2.23,11.65,11.13,16.71,21.49,19.84
	c11.51,3.49,23.02,2.48,34.52-0.13c-0.17,5.8,0.48,11.58-0.85,17.38c-2.09,9.14-7.65,14.9-16.23,18.01
	c-9.14,3.31-18.69,4.35-28.31,5.17c-11.44,0.97-22.92,1.44-34.36,0.83c-13.04-0.7-26.31-0.49-38.95-4.19
	c-13.16-3.84-22.41-10.36-22.28-27.66c0.02-2.66-0.01-5.32-0.01-7.99c9.1,0.3,18.12,0.77,27.11-1.92
	c21.55-6.46,27.23-26.99,11.78-43.21C582.65,646.01,576.72,642.46,570.63,639.07z"/>
<g id="XMLID_1_">
	<g>
		<path class="st5" d="M711.65,637.48c17.35,7.38,21.11,24.61,8.68,38.87c-8.25,9.47-18.99,14.7-30.69,18.36
			c-11.5,2.61-23.02,3.62-34.52,0.13c-10.36-3.14-19.26-8.2-21.49-19.85c-2.13-11.13,4.06-19.04,11.65-26
			c6.48-5.95,14.49-9.26,22.5-12.51c8.1-1.77,16.18-3.44,24.59-3.13C699.1,633.59,705.53,634.87,711.65,637.48z"/>
	</g>
	<g>
	</g>
</g>
<path class="st5" d="M570.63,639.07c6.09,3.38,12.02,6.94,16.91,12.06c15.45,16.22,9.77,36.75-11.78,43.21
	c-8.99,2.69-18.01,2.23-27.11,1.92c-7.22-2.25-14.58-3.92-21.27-7.78c-9.92-5.72-18.08-12.74-20.9-24.43
	c-1.33-13.07,5-21.59,16.16-27.24c13.99-5.65,27.95-4.49,41.9,0.15C566.57,637.65,568.6,638.37,570.63,639.07z"/>
<path class="st1" d="M542.52,1251.78c-37.48-41.94-54.82-120.12-72.6-171.24c-17.5-50.34-30.56-101.53-37.68-153.8
	c-3.73-27.35-5.11-54.81-2.23-82.33c0.21-2.02,0.73-4.01,1.1-6.01c1.73-0.94,2.79-1.36,4,0.97c2.15,4.15,3.61,8.4,4.49,12.85
	c0.22,1.1,0.63,2.49,2.43,2.26c1.4-0.17,1.64-1.34,1.67-2.38c0.1-3.91,2.45-7.25,4.06-10.67c3.96-8.41,6.72-10.17,13.4-8.97
	c11.21,2.01,22.21,4.83,32.98,8.18c8.95,2.78,13.47,3.36,19.11,0.98c-16.47-4.08-32.75-8.07-47.43-15.65
	c7.76,0.97,14.56,4.72,22.4,5.94c0.07-2.33-3.82-2.44-2.42-4.24c1.07-1.37,3.39-0.49,5.16-0.14c1.79,0.35,3.61,0.57,5.36,1.02
	c27.96,7.29,56.18,13.41,85.28,16.19c18.34,1.75,36.57,4.71,55.13,2.41c16.95-2.11,33.96-3.88,50.81-6.47
	c23.97-3.68,47.45-9.28,70.95-14.73c2.38-0.55,4.72-1.08,7.3-0.12c-1.3,2.67-4.82,2.29-6.34,4.29c1.81,0.89,3.3-0.15,4.74-0.59
	c4.87-1.49,9.64-3.25,14.53-4.69c1.29-0.38,3.36-2.08,4.19,0.06c0.66,1.69-1.65,2.42-3.18,2.74c-11.67,2.48-22.39,7.38-33.99,10.05
	c-4.97,1.14-9.87,2.54-14.81,3.82c3.99-0.58,7.48,1.9,11.47,0.84c14.17-3.77,28.44-7.29,42.76-10.62c7.57-1.76,13.93-1.2,18.47,6.08
	c4.33,6.94,5.68,6.7,10.87,2.99c1.35,0.61,0.75,2.64,2.66,2.83c1.35,20.81,0.59,41.6-1.19,62.36
	c-4.24,49.4-13.63,87.37-21.45,117.04c-3.7,14.04-7.15,25.7-19.34,63.45c-48.64,150.6-55.02,151.83-65.2,166.22
	c-20.34,28.74-85.85,21.47-85.85,21.47S567.95,1280.24,542.52,1251.78z"/>
</svg>
